<?xml version="1.0" encoding="iso-8859-1"?>
<!-- Generator: Adobe Illustrator 17.1.0, SVG Export Plug-In . SVG Version: 6.00 Build 0)  -->
<!DOCTYPE svg PUBLIC "-//W3C//DTD SVG 1.1//EN" "http://www.w3.org/Graphics/SVG/1.1/DTD/svg11.dtd">
<svg version="1.1" id="Capa_1" xmlns="http://www.w3.org/2000/svg" xmlns:xlink="http://www.w3.org/1999/xlink" x="0px" y="0px"
	 viewBox="0 0 470 470" style="enable-background:new 0 0 470 470;" xml:space="preserve">
<g>
	<path d="M241.495,110.296c-1.34-2.32-3.815-3.75-6.495-3.75s-5.155,1.43-6.495,3.75l-45.453,78.728l-3.505-12.055
		c-1.156-3.977-5.318-6.264-9.295-5.108c-3.978,1.156-6.265,5.318-5.108,9.295l8.412,28.935c0.95,3.267,3.935,5.408,7.197,5.408
		c0.592,0,1.193-0.07,1.792-0.218l29.265-7.183c4.023-0.987,6.483-5.049,5.496-9.071c-0.987-4.023-5.053-6.483-9.071-5.496
		l-12.192,2.992L235,129.046l22.333,38.683c2.071,3.588,6.66,4.816,10.245,2.745c3.587-2.071,4.816-6.658,2.745-10.245
		L241.495,110.296z"/>
	<path d="M159.262,230.229l-28.816,49.911c-1.34,2.32-1.34,5.18,0,7.5s3.815,3.75,6.495,3.75h90.906l-8.688,9.063
		c-2.867,2.99-2.766,7.738,0.224,10.604c1.454,1.394,3.323,2.086,5.189,2.086c1.973,0,3.942-0.773,5.415-2.31l20.852-21.753
		c2.781-2.901,2.781-7.479,0-10.38l-20.852-21.752c-2.866-2.99-7.614-3.09-10.604-0.224s-3.091,7.614-0.224,10.604l8.687,9.063
		h-77.916l22.321-38.661c2.071-3.587,0.842-8.174-2.745-10.245C165.919,225.412,161.333,226.64,159.262,230.229z"/>
	<path d="M315.365,198.909c0.987-4.023-1.474-8.084-5.496-9.071l-29.265-7.182c-3.903-0.958-7.867,1.331-8.99,5.19l-8.412,28.935
		c-1.156,3.978,1.131,8.139,5.108,9.295c0.699,0.204,1.404,0.3,2.098,0.3c3.25,0,6.245-2.13,7.198-5.408l3.504-12.055l38.959,67.477
		h-44.644c-4.143,0-7.5,3.358-7.5,7.5s3.357,7.5,7.5,7.5h57.634c2.68,0,5.155-1.43,6.495-3.75s1.34-5.18,0-7.5l-45.454-78.727
		l12.193,2.992C310.31,205.393,314.378,202.931,315.365,198.909z"/>
	<path d="M421.431,52.995h-22.5c0-5.487,0-12.91,0-13.997C398.931,17.494,381.191,0,359.386,0H110.613
		C88.808,0,71.069,17.494,71.069,38.998v13.997h-22.5c-4.142,0-7.5,3.358-7.5,7.5s3.358,7.5,7.5,7.5h372.863
		c4.143,0,7.5-3.358,7.5-7.5S425.574,52.995,421.431,52.995z M86.069,38.998C86.069,25.765,97.079,15,110.613,15h248.774
		c13.534,0,24.545,10.765,24.545,23.998c0,0.997,0,8.476,0,13.997H86.069V38.998z"/>
	<path d="M379.653,347.113c3.995,0,7.316-3.152,7.487-7.182l10.572-249.119c0.176-4.138-3.037-7.636-7.175-7.811
		c-4.149-0.201-7.637,3.036-7.812,7.175l-10.572,249.119c-0.176,4.138,3.037,7.636,7.175,7.811
		C379.437,347.111,379.546,347.113,379.653,347.113z"/>
	<path d="M275.617,453.795H127.198c-13.706,0-25.329-11.14-25.91-24.833L86.91,90.177c-0.175-4.138-3.675-7.365-7.811-7.175
		c-4.139,0.176-7.351,3.673-7.175,7.811l14.378,338.785c0.917,21.614,19.263,39.198,40.896,39.198h148.418
		c4.143,0,7.5-3.358,7.5-7.5S279.76,453.795,275.617,453.795z"/>
	<path d="M339.778,351.694c-32.617,0-59.153,26.536-59.153,59.153S307.161,470,339.778,470s59.153-26.536,59.153-59.153
		S372.395,351.694,339.778,351.694z M339.778,455c-24.347,0-44.153-19.807-44.153-44.153s19.807-44.153,44.153-44.153
		s44.153,19.807,44.153,44.153S364.125,455,339.778,455z"/>
	<path d="M361.431,403.347c-4.143,0-7.5,3.358-7.5,7.5c0,7.804-6.35,14.153-14.153,14.153s-14.153-6.349-14.153-14.153
		s6.35-14.153,14.153-14.153c4.143,0,7.5-3.358,7.5-7.5s-3.357-7.5-7.5-7.5c-16.075,0-29.153,13.078-29.153,29.153
		S323.703,440,339.778,440s29.153-13.078,29.153-29.153C368.931,406.705,365.574,403.347,361.431,403.347z"/>
</g>
<g>
</g>
<g>
</g>
<g>
</g>
<g>
</g>
<g>
</g>
<g>
</g>
<g>
</g>
<g>
</g>
<g>
</g>
<g>
</g>
<g>
</g>
<g>
</g>
<g>
</g>
<g>
</g>
<g>
</g>
</svg>
